<svg xmlns="http://www.w3.org/2000/svg" xmlns:xlink="http://www.w3.org/1999/xlink" version="1.1" x="0px" y="0px" viewBox="0 0 100 125" enable-background="new 0 0 100 100" xml:space="preserve"><g><polygon points="3.05,71.749 18.367,56.421 21.745,59.787 6.406,75.117  "/></g><path d="M52.113,43.444c0,9.608-7.793,17.391-17.391,17.391c-9.614,0-17.402-7.782-17.402-17.391  c0-9.608,7.788-17.401,17.402-17.401C44.32,26.043,52.113,33.836,52.113,43.444L52.113,43.444z M48.635,43.444  c0-7.688-6.235-13.918-13.913-13.918c-7.689,0-13.915,6.229-13.915,13.918c0,7.689,6.226,13.921,13.915,13.921  C42.4,57.365,48.635,51.134,48.635,43.444L48.635,43.444z"/><g><path d="M35.857,24.349c1.486-2.49,4.178-3.993,7.081-3.96c4.491,0.072,8.073,3.764,8.002,8.249l13.458-4.645   c0.921-0.318,1.931-0.181,2.726,0.373l10.35,7.152c0.361,0.247,0.646,0.565,0.877,0.938c0.866,1.443,0.406,3.313-1.031,4.186   l-3.191,1.914c-1.151,0.691-2.616,0.543-3.613-0.356l-5.81-5.26l-5.681,2.485l10.266,10.375l10.213,5.15l9.828-8.325   c1.059-0.893,2.577-0.971,3.707-0.187l3.043,2.111c0.182,0.126,0.357,0.28,0.511,0.456c1.14,1.234,1.054,3.175-0.196,4.305   L82.786,61.707c-0.904,0.828-2.21,1.031-3.317,0.521l-14.15-6.521l-1.359,7.549l14.846,6.641c1.41,0.631,2.123,2.209,1.667,3.674   l-1.321,4.338c-0.032,0.099-0.066,0.191-0.109,0.279c-0.631,1.553-2.414,2.293-3.981,1.651l-19.914-8.243   c-1.18-0.498-1.931-1.684-1.881-2.956l0.663-14.676l-1.946-2.267c0.264-0.563,0.515-1.139,0.724-1.736l2.939,3.41l-0.691,15.346   c-0.021,0.564,0.309,1.092,0.844,1.316l19.91,8.248c0.696,0.29,1.492-0.044,1.781-0.734c0.018-0.05,0.039-0.088,0.05-0.127   l1.321-4.338c0.203-0.663-0.115-1.361-0.74-1.641l-16.064-7.189l1.998-10.979l16.112,7.419c0.499,0.232,1.085,0.143,1.486-0.229   l13.612-12.4c0.559-0.51,0.593-1.371,0.088-1.931c-0.066-0.078-0.143-0.143-0.23-0.203l-3.044-2.101   c-0.499-0.357-1.19-0.329-1.651,0.077l-10.693,9.049l-11.445-5.776L56.095,34.857l8.938-3.9l6.609,5.989   c0.455,0.406,1.102,0.471,1.623,0.165l3.165-1.919c0.658-0.384,0.866-1.229,0.472-1.871c-0.094-0.164-0.23-0.307-0.396-0.417   l-10.343-7.157c-0.356-0.247-0.806-0.307-1.218-0.165L49.25,31.007c-0.11-0.132-0.23-0.269-0.34-0.406   c1.152-3.357-0.636-7.021-4.003-8.172c-2.595-0.89-5.462-0.044-7.152,2.116C37.118,24.453,36.488,24.376,35.857,24.349z"/></g><g><path d="M46.891,43.215l-1.431-1.663l-3.022,6.154c-0.285,0.564-0.9,0.861-1.513,0.729l-12.526-2.698   c-0.099-0.017-0.187-0.055-0.279-0.094c-0.681-0.307-0.988-1.113-0.681-1.804l2.155-4.81l10.398,2.957l2.906-7.037   c-2.417,0.04-4.662-1.294-5.78-3.444c-0.641-0.137-1.283-0.213-1.937-0.231c0.861,2.43,2.858,4.3,5.337,5.041l-1.514,3.637   l-10.35-2.935l-2.753,6.143c-0.691,1.536-0.011,3.334,1.536,4.026c0.192,0.087,0.389,0.153,0.603,0.197l12.515,2.704   c1.371,0.296,2.764-0.373,3.39-1.628l1.909-3.872l0.855,0.987C46.853,44.8,46.914,44.004,46.891,43.215z"/></g><text x="0" y="115" fill="#000000" font-size="5px" font-weight="bold" font-family="'Helvetica Neue', Helvetica, Arial-Unicode, Arial, Sans-serif">Created by Aldric Rodríguez</text><text x="0" y="120" fill="#000000" font-size="5px" font-weight="bold" font-family="'Helvetica Neue', Helvetica, Arial-Unicode, Arial, Sans-serif">from the Noun Project</text></svg>